# xmcd
#
# Track frame offsets:
#	150
#	6147
#	24908
#	46433
#	64425
#	81740
#	102142
#	117325
#	135131
#	153415
#	172740
#	192790
#	216389
#
# Disc length: 3439 seconds
#
# Revision: 1
# Processed by: cddbd v1.5.2PL0 Copyright (c) Steve Scherf et al.
# Submitted via: dBpowerAMP V4.0
#
DISCID=a80d6d0d
DTITLE=Sarah Brightman - Symphony
DYEAR=2008
DGENRE=New Age
TTITLE0=Gothica
TTITLE1=Fleurs Du Mal
TTITLE2=Symphony
TTITLE3=Canto Della Tierra (Duet With Andrea Bocelli)
TTITLE4=Seanvean
TTITLE5=I Will Be With You (Where The Lost Ones Go)
TTITLE6=Schwere Traume
TTITLE7=Sara qui (Duet With Alessandro Safina)
TTITLE8=Storia D'amore
TTITLE9=Let It Rain
TTITLE10=Attesa
TTITLE11=Passión (Duet With Fernando Lima)
TTITLE12=Running
EXTD=
EXTT0=
EXTT1=
EXTT2=
EXTT3=
EXTT4=
EXTT5=
EXTT6=
EXTT7=
EXTT8=
EXTT9=
EXTT10=
EXTT11=
EXTT12=
PLAYORDER=
